# xmcd
#
# Track frame offsets: 
#        150
#        18803
#        38641
#        53346
#        72293
#        94670
#        115202
#        131236
#        145753
#        163054
#
# Disc length: 2482 seconds
#
# Revision: 0
# Processed by: cddbd v1.5.2PL0 Copyright (c) Steve Scherf et al.
# Submitted via: ExactAudioCopy v1.3
#
DISCID=7d09b00a
DTITLE=Ronnie Milsap - Lost In The Fifties Tonight
DYEAR=1985
DGENRE=Country
TTITLE0=Lost In The Fifties Tonight (In The Still Of The Night)
TTITLE1=In Love
TTITLE2=Old Fashioned Girl Like You
TTITLE3=I Heard It Through The Grapevine
TTITLE4=Don't Take It Tonight
TTITLE5=How Do I Turn You On
TTITLE6=Happy, Happy Birthday Baby
TTITLE7=Nashville Moon
TTITLE8=I Only Remember The Good Times
TTITLE9=Money (Now That's What I Want)
EXTD=
EXTT0=
EXTT1=
EXTT2=
EXTT3=
EXTT4=
EXTT5=
EXTT6=
EXTT7=
EXTT8=
EXTT9=
PLAYORDER=
